<svg width="16" height="16" viewBox="0 0 16 16" fill="none" xmlns="http://www.w3.org/2000/svg">
<path d="M8.87588 7.93333L11.2325 5.576C11.2962 5.5145 11.347 5.44094 11.3819 5.3596C11.4169 5.27827 11.4353 5.19079 11.436 5.10227C11.4368 5.01375 11.4199 4.92596 11.3864 4.84403C11.3529 4.7621 11.3034 4.68767 11.2408 4.62507C11.1782 4.56248 11.1038 4.51297 11.0218 4.47945C10.9399 4.44593 10.8521 4.42907 10.7636 4.42983C10.6751 4.4306 10.5876 4.44899 10.5063 4.48393C10.4249 4.51887 10.3514 4.56966 10.2899 4.63334L7.93255 6.99L5.57588 4.63334C5.51438 4.56966 5.44082 4.51887 5.35948 4.48393C5.27815 4.44899 5.19067 4.4306 5.10215 4.42983C5.01363 4.42907 4.92584 4.44593 4.84391 4.47945C4.76198 4.51297 4.68754 4.56248 4.62495 4.62507C4.56235 4.68767 4.51285 4.7621 4.47933 4.84403C4.44581 4.92596 4.42894 5.01375 4.42971 5.10227C4.43048 5.19079 4.44887 5.27827 4.48381 5.3596C4.51875 5.44094 4.56954 5.5145 4.63321 5.576L6.98988 7.93267L4.63321 10.29C4.56954 10.3515 4.51875 10.4251 4.48381 10.5064C4.44887 10.5877 4.43048 10.6752 4.42971 10.7637C4.42894 10.8523 4.44581 10.94 4.47933 11.022C4.51285 11.1039 4.56235 11.1783 4.62495 11.2409C4.68754 11.3035 4.76198 11.353 4.84391 11.3865C4.92584 11.4201 5.01363 11.4369 5.10215 11.4362C5.19067 11.4354 5.27815 11.417 5.35948 11.3821C5.44082 11.3471 5.51438 11.2963 5.57588 11.2327L7.93255 8.876L10.2899 11.2327C10.3514 11.2963 10.4249 11.3471 10.5063 11.3821C10.5876 11.417 10.6751 11.4354 10.7636 11.4362C10.8521 11.4369 10.9399 11.4201 11.0218 11.3865C11.1038 11.353 11.1782 11.3035 11.2408 11.2409C11.3034 11.1783 11.3529 11.1039 11.3864 11.022C11.4199 10.94 11.4368 10.8523 11.436 10.7637C11.4353 10.6752 11.4169 10.5877 11.3819 10.5064C11.347 10.4251 11.2962 10.3515 11.2325 10.29L8.87588 7.93267V7.93333Z" fill="black"/>
</svg>
