<svg xmlns="http://www.w3.org/2000/svg" width="19" height="19" viewBox="0 0 19 19" fill="none">
<path d="M8.50002 14C9.28795 14 10.0682 13.8448 10.7961 13.5433C11.5241 13.2418 12.1855 12.7998 12.7427 12.2427C13.2998 11.6855 13.7418 11.0241 14.0433 10.2961C14.3448 9.56816 14.5 8.78795 14.5 8.00002C14.5 7.21208 14.3448 6.43187 14.0433 5.70391C13.7418 4.97596 13.2998 4.31453 12.7427 3.75737C12.1855 3.20022 11.5241 2.75827 10.7961 2.45674C10.0682 2.15521 9.28795 2.00002 8.50002 2.00002C6.90872 2.00002 5.38259 2.63216 4.25737 3.75737C3.13216 4.88259 2.50002 6.40872 2.50002 8.00002C2.50002 9.59131 3.13216 11.1174 4.25737 12.2427C5.38259 13.3679 6.90872 14 8.50002 14ZM14.82 12.906L18.4 16.486C18.4955 16.5783 18.5716 16.6887 18.6239 16.8108C18.6762 16.9328 18.7037 17.064 18.7048 17.1968C18.7058 17.3296 18.6804 17.4613 18.63 17.5841C18.5797 17.707 18.5053 17.8186 18.4114 17.9124C18.3174 18.0062 18.2057 18.0804 18.0828 18.1306C17.9599 18.1808 17.8282 18.206 17.6954 18.2048C17.5626 18.2035 17.4314 18.1758 17.3095 18.1233C17.1875 18.0708 17.0772 17.9946 16.985 17.899L13.405 14.319C11.7975 15.5669 9.77481 16.1552 7.74877 15.9642C5.72273 15.7732 3.84562 14.8173 2.49957 13.2911C1.15351 11.7648 0.4397 9.78296 0.503441 7.74894C0.567182 5.71492 1.40368 3.78164 2.84266 2.34266C4.28164 0.903684 6.21492 0.0671818 8.24894 0.00344074C10.283 -0.0603003 12.2648 0.653512 13.7911 1.99957C15.3173 3.34562 16.2732 5.22273 16.4642 7.24877C16.6552 9.27481 16.0669 11.2975 14.819 12.905L14.82 12.906Z" fill="#697077"/>
</svg>